<svg width="60" height="59" viewBox="0 0 60 59" fill="none" xmlns="http://www.w3.org/2000/svg">
<path d="M23.9998 0.161377C21.1115 0.722384 18.3236 1.71309 15.729 3.10048C17.7762 17.9319 18.7502 32.0837 18.5237 43.3871C18.4547 47.7721 18.1504 52.1502 17.612 56.5026C19.7202 57.4435 21.9316 58.1335 24.2009 58.5583C24.9341 54.3216 25.436 50.0482 25.7044 45.757C26.5567 32.953 25.9677 16.5869 23.9998 0.161377Z" fill="#2B708B"/>
<path d="M33.6666 48.8377C33.1608 52.5244 32.552 55.9118 31.8403 59C34.1928 58.832 36.5168 58.3843 38.7634 57.6664C39.2711 55.5239 39.7431 53.2483 40.1791 50.8396C42.6793 36.7982 43.6732 18.7219 42.6878 2.5795C40.1099 1.32915 37.3639 0.460233 34.5359 0C35.9658 16.788 35.6062 34.8558 33.6666 48.8377Z" fill="#2B708B"/>
<path d="M51.5731 9.19673C51.6693 23.5354 49.7524 40.145 46.5896 53.3172C46.5415 53.521 46.4933 53.7221 46.4424 53.926C49.9759 51.5219 52.9496 48.3842 55.1608 44.7268C57.372 41.0695 58.7686 36.9783 59.2556 32.7323C59.7425 28.4864 59.3083 24.1853 57.9825 20.1223C56.6568 16.0593 54.4706 12.3299 51.5731 9.18823V9.19673Z" fill="url(#paint0_linear)"/>
<path d="M9.29301 50.9443C9.31566 48.2147 9.24299 45.3002 9.07499 42.2006C8.60496 33.6806 7.33361 23.4391 5.35156 12.3113C1.27181 18.1562 -0.572255 25.2723 0.155367 32.363C0.88299 39.4537 4.13387 46.0469 9.31566 50.9414L9.29301 50.9443Z" fill="url(#paint1_linear)"/>
<defs>
<linearGradient id="paint0_linear" x1="53.4645" y1="37.0049" x2="55.0332" y2="24.0961" gradientUnits="userSpaceOnUse">
<stop stop-color="#F3BC00"/>
<stop offset="1" stop-color="#FFDD00"/>
</linearGradient>
<linearGradient id="paint1_linear" x1="5.56959" y1="47.7022" x2="3.02407" y2="18.8804" gradientUnits="userSpaceOnUse">
<stop stop-color="#00702A"/>
<stop offset="0.5" stop-color="#009E3D"/>
<stop offset="1" stop-color="#009E3D"/>
</linearGradient>
</defs>
</svg>
